<svg width="431" height="120" viewBox="0 0 431 120" fill="none" xmlns="http://www.w3.org/2000/svg" preserveAspectRatio="none">
    <path fill-rule="evenodd" clip-rule="evenodd" d="M196.923 120C177.884 120 158.118 119.46 137.764 118.37C59.8733 114.208 13.0307 102.725 2.29237 85.17C-2.0806 78.0135 -0.173568 70.0033 7.81163 62.0028C27.2933 42.4846 80.2813 23.8452 149.55 12.1417C228.191 -1.14535 317.087 -3.61924 399.857 5.17489C401.273 5.32588 402.256 6.30537 402.054 7.3623C401.852 8.42115 400.559 9.16836 399.13 9.00769C215.931 -10.4602 47.4504 28.764 11.9595 64.3199C5.07658 71.2132 3.4102 77.6863 7.00173 83.5594C12.6504 92.8007 37.2037 109.115 138.131 114.51C297.372 123.022 394.361 96.5561 419.833 66.5519C426.758 58.3985 427.736 50.5064 422.662 43.7293C413.747 31.8167 387.09 24.937 351.367 25.388H351.325C349.915 25.388 348.761 24.5421 348.738 23.4833C348.714 22.4147 349.856 21.534 351.284 21.5165C389.484 21.0655 417.171 28.4698 427.177 41.8362C433.152 49.8173 432.096 59.3315 424.204 68.627C410.534 84.7306 378.841 98.6544 334.969 107.828C296.42 115.89 249.435 120 196.923 120Z" fill="#FF5C00"/>
</svg>
